%TF.GenerationSoftware,KiCad,Pcbnew,10.0.0*%
%TF.CreationDate,2026-04-17T15:15:20+03:00*%
%TF.ProjectId,project1-led,70726f6a-6563-4743-912d-6c65642e6b69,1*%
%TF.SameCoordinates,Original*%
%TF.FileFunction,Legend,Top*%
%TF.FilePolarity,Positive*%
%FSLAX46Y46*%
G04 Gerber Fmt 4.6, Leading zero omitted, Abs format (unit mm)*
G04 Created by KiCad (PCBNEW 10.0.0) date 2026-04-17 15:15:20*
%MOMM*%
%LPD*%
G01*
G04 APERTURE LIST*
%ADD10C,0.150000*%
%ADD11C,0.120000*%
G04 APERTURE END LIST*
D10*
X112836779Y-124988866D02*
X113598684Y-124988866D01*
X112836779Y-132488866D02*
X113598684Y-132488866D01*
X113217731Y-132869819D02*
X113217731Y-132107914D01*
X115261905Y-124954819D02*
X115261905Y-123954819D01*
X115261905Y-123954819D02*
X115500000Y-123954819D01*
X115500000Y-123954819D02*
X115642857Y-124002438D01*
X115642857Y-124002438D02*
X115738095Y-124097676D01*
X115738095Y-124097676D02*
X115785714Y-124192914D01*
X115785714Y-124192914D02*
X115833333Y-124383390D01*
X115833333Y-124383390D02*
X115833333Y-124526247D01*
X115833333Y-124526247D02*
X115785714Y-124716723D01*
X115785714Y-124716723D02*
X115738095Y-124811961D01*
X115738095Y-124811961D02*
X115642857Y-124907200D01*
X115642857Y-124907200D02*
X115500000Y-124954819D01*
X115500000Y-124954819D02*
X115261905Y-124954819D01*
X116785714Y-124954819D02*
X116214286Y-124954819D01*
X116500000Y-124954819D02*
X116500000Y-123954819D01*
X116500000Y-123954819D02*
X116404762Y-124097676D01*
X116404762Y-124097676D02*
X116309524Y-124192914D01*
X116309524Y-124192914D02*
X116214286Y-124240533D01*
X109494819Y-129137857D02*
X109494819Y-129614047D01*
X109494819Y-129614047D02*
X108494819Y-129614047D01*
X108971009Y-128804523D02*
X108971009Y-128471190D01*
X109494819Y-128328333D02*
X109494819Y-128804523D01*
X109494819Y-128804523D02*
X108494819Y-128804523D01*
X108494819Y-128804523D02*
X108494819Y-128328333D01*
X109494819Y-127899761D02*
X108494819Y-127899761D01*
X108494819Y-127899761D02*
X108494819Y-127661666D01*
X108494819Y-127661666D02*
X108542438Y-127518809D01*
X108542438Y-127518809D02*
X108637676Y-127423571D01*
X108637676Y-127423571D02*
X108732914Y-127375952D01*
X108732914Y-127375952D02*
X108923390Y-127328333D01*
X108923390Y-127328333D02*
X109066247Y-127328333D01*
X109066247Y-127328333D02*
X109256723Y-127375952D01*
X109256723Y-127375952D02*
X109351961Y-127423571D01*
X109351961Y-127423571D02*
X109447200Y-127518809D01*
X109447200Y-127518809D02*
X109494819Y-127661666D01*
X109494819Y-127661666D02*
X109494819Y-127899761D01*
X150894285Y-120811009D02*
X151037142Y-120858628D01*
X151037142Y-120858628D02*
X151084761Y-120906247D01*
X151084761Y-120906247D02*
X151132380Y-121001485D01*
X151132380Y-121001485D02*
X151132380Y-121144342D01*
X151132380Y-121144342D02*
X151084761Y-121239580D01*
X151084761Y-121239580D02*
X151037142Y-121287200D01*
X151037142Y-121287200D02*
X150941904Y-121334819D01*
X150941904Y-121334819D02*
X150560952Y-121334819D01*
X150560952Y-121334819D02*
X150560952Y-120334819D01*
X150560952Y-120334819D02*
X150894285Y-120334819D01*
X150894285Y-120334819D02*
X150989523Y-120382438D01*
X150989523Y-120382438D02*
X151037142Y-120430057D01*
X151037142Y-120430057D02*
X151084761Y-120525295D01*
X151084761Y-120525295D02*
X151084761Y-120620533D01*
X151084761Y-120620533D02*
X151037142Y-120715771D01*
X151037142Y-120715771D02*
X150989523Y-120763390D01*
X150989523Y-120763390D02*
X150894285Y-120811009D01*
X150894285Y-120811009D02*
X150560952Y-120811009D01*
X151418095Y-120334819D02*
X151989523Y-120334819D01*
X151703809Y-121334819D02*
X151703809Y-120334819D01*
X152846666Y-121334819D02*
X152275238Y-121334819D01*
X152560952Y-121334819D02*
X152560952Y-120334819D01*
X152560952Y-120334819D02*
X152465714Y-120477676D01*
X152465714Y-120477676D02*
X152370476Y-120572914D01*
X152370476Y-120572914D02*
X152275238Y-120620533D01*
X147322856Y-137829009D02*
X147465713Y-137876628D01*
X147465713Y-137876628D02*
X147513332Y-137924247D01*
X147513332Y-137924247D02*
X147560951Y-138019485D01*
X147560951Y-138019485D02*
X147560951Y-138162342D01*
X147560951Y-138162342D02*
X147513332Y-138257580D01*
X147513332Y-138257580D02*
X147465713Y-138305200D01*
X147465713Y-138305200D02*
X147370475Y-138352819D01*
X147370475Y-138352819D02*
X146989523Y-138352819D01*
X146989523Y-138352819D02*
X146989523Y-137352819D01*
X146989523Y-137352819D02*
X147322856Y-137352819D01*
X147322856Y-137352819D02*
X147418094Y-137400438D01*
X147418094Y-137400438D02*
X147465713Y-137448057D01*
X147465713Y-137448057D02*
X147513332Y-137543295D01*
X147513332Y-137543295D02*
X147513332Y-137638533D01*
X147513332Y-137638533D02*
X147465713Y-137733771D01*
X147465713Y-137733771D02*
X147418094Y-137781390D01*
X147418094Y-137781390D02*
X147322856Y-137829009D01*
X147322856Y-137829009D02*
X146989523Y-137829009D01*
X148418094Y-138352819D02*
X148418094Y-137829009D01*
X148418094Y-137829009D02*
X148370475Y-137733771D01*
X148370475Y-137733771D02*
X148275237Y-137686152D01*
X148275237Y-137686152D02*
X148084761Y-137686152D01*
X148084761Y-137686152D02*
X147989523Y-137733771D01*
X148418094Y-138305200D02*
X148322856Y-138352819D01*
X148322856Y-138352819D02*
X148084761Y-138352819D01*
X148084761Y-138352819D02*
X147989523Y-138305200D01*
X147989523Y-138305200D02*
X147941904Y-138209961D01*
X147941904Y-138209961D02*
X147941904Y-138114723D01*
X147941904Y-138114723D02*
X147989523Y-138019485D01*
X147989523Y-138019485D02*
X148084761Y-137971866D01*
X148084761Y-137971866D02*
X148322856Y-137971866D01*
X148322856Y-137971866D02*
X148418094Y-137924247D01*
X148751428Y-137686152D02*
X149132380Y-137686152D01*
X148894285Y-137352819D02*
X148894285Y-138209961D01*
X148894285Y-138209961D02*
X148941904Y-138305200D01*
X148941904Y-138305200D02*
X149037142Y-138352819D01*
X149037142Y-138352819D02*
X149132380Y-138352819D01*
X149322857Y-137686152D02*
X149703809Y-137686152D01*
X149465714Y-137352819D02*
X149465714Y-138209961D01*
X149465714Y-138209961D02*
X149513333Y-138305200D01*
X149513333Y-138305200D02*
X149608571Y-138352819D01*
X149608571Y-138352819D02*
X149703809Y-138352819D01*
X150418095Y-138305200D02*
X150322857Y-138352819D01*
X150322857Y-138352819D02*
X150132381Y-138352819D01*
X150132381Y-138352819D02*
X150037143Y-138305200D01*
X150037143Y-138305200D02*
X149989524Y-138209961D01*
X149989524Y-138209961D02*
X149989524Y-137829009D01*
X149989524Y-137829009D02*
X150037143Y-137733771D01*
X150037143Y-137733771D02*
X150132381Y-137686152D01*
X150132381Y-137686152D02*
X150322857Y-137686152D01*
X150322857Y-137686152D02*
X150418095Y-137733771D01*
X150418095Y-137733771D02*
X150465714Y-137829009D01*
X150465714Y-137829009D02*
X150465714Y-137924247D01*
X150465714Y-137924247D02*
X149989524Y-138019485D01*
X150894286Y-138352819D02*
X150894286Y-137686152D01*
X150894286Y-137876628D02*
X150941905Y-137781390D01*
X150941905Y-137781390D02*
X150989524Y-137733771D01*
X150989524Y-137733771D02*
X151084762Y-137686152D01*
X151084762Y-137686152D02*
X151180000Y-137686152D01*
X151418096Y-137686152D02*
X151656191Y-138352819D01*
X151894286Y-137686152D02*
X151656191Y-138352819D01*
X151656191Y-138352819D02*
X151560953Y-138590914D01*
X151560953Y-138590914D02*
X151513334Y-138638533D01*
X151513334Y-138638533D02*
X151418096Y-138686152D01*
X152989525Y-137448057D02*
X153037144Y-137400438D01*
X153037144Y-137400438D02*
X153132382Y-137352819D01*
X153132382Y-137352819D02*
X153370477Y-137352819D01*
X153370477Y-137352819D02*
X153465715Y-137400438D01*
X153465715Y-137400438D02*
X153513334Y-137448057D01*
X153513334Y-137448057D02*
X153560953Y-137543295D01*
X153560953Y-137543295D02*
X153560953Y-137638533D01*
X153560953Y-137638533D02*
X153513334Y-137781390D01*
X153513334Y-137781390D02*
X152941906Y-138352819D01*
X152941906Y-138352819D02*
X153560953Y-138352819D01*
X154180001Y-137352819D02*
X154275239Y-137352819D01*
X154275239Y-137352819D02*
X154370477Y-137400438D01*
X154370477Y-137400438D02*
X154418096Y-137448057D01*
X154418096Y-137448057D02*
X154465715Y-137543295D01*
X154465715Y-137543295D02*
X154513334Y-137733771D01*
X154513334Y-137733771D02*
X154513334Y-137971866D01*
X154513334Y-137971866D02*
X154465715Y-138162342D01*
X154465715Y-138162342D02*
X154418096Y-138257580D01*
X154418096Y-138257580D02*
X154370477Y-138305200D01*
X154370477Y-138305200D02*
X154275239Y-138352819D01*
X154275239Y-138352819D02*
X154180001Y-138352819D01*
X154180001Y-138352819D02*
X154084763Y-138305200D01*
X154084763Y-138305200D02*
X154037144Y-138257580D01*
X154037144Y-138257580D02*
X153989525Y-138162342D01*
X153989525Y-138162342D02*
X153941906Y-137971866D01*
X153941906Y-137971866D02*
X153941906Y-137733771D01*
X153941906Y-137733771D02*
X153989525Y-137543295D01*
X153989525Y-137543295D02*
X154037144Y-137448057D01*
X154037144Y-137448057D02*
X154084763Y-137400438D01*
X154084763Y-137400438D02*
X154180001Y-137352819D01*
X154846668Y-137352819D02*
X155465715Y-137352819D01*
X155465715Y-137352819D02*
X155132382Y-137733771D01*
X155132382Y-137733771D02*
X155275239Y-137733771D01*
X155275239Y-137733771D02*
X155370477Y-137781390D01*
X155370477Y-137781390D02*
X155418096Y-137829009D01*
X155418096Y-137829009D02*
X155465715Y-137924247D01*
X155465715Y-137924247D02*
X155465715Y-138162342D01*
X155465715Y-138162342D02*
X155418096Y-138257580D01*
X155418096Y-138257580D02*
X155370477Y-138305200D01*
X155370477Y-138305200D02*
X155275239Y-138352819D01*
X155275239Y-138352819D02*
X154989525Y-138352819D01*
X154989525Y-138352819D02*
X154894287Y-138305200D01*
X154894287Y-138305200D02*
X154846668Y-138257580D01*
X155846668Y-137448057D02*
X155894287Y-137400438D01*
X155894287Y-137400438D02*
X155989525Y-137352819D01*
X155989525Y-137352819D02*
X156227620Y-137352819D01*
X156227620Y-137352819D02*
X156322858Y-137400438D01*
X156322858Y-137400438D02*
X156370477Y-137448057D01*
X156370477Y-137448057D02*
X156418096Y-137543295D01*
X156418096Y-137543295D02*
X156418096Y-137638533D01*
X156418096Y-137638533D02*
X156370477Y-137781390D01*
X156370477Y-137781390D02*
X155799049Y-138352819D01*
X155799049Y-138352819D02*
X156418096Y-138352819D01*
X128666667Y-124607200D02*
X128809524Y-124654819D01*
X128809524Y-124654819D02*
X129047619Y-124654819D01*
X129047619Y-124654819D02*
X129142857Y-124607200D01*
X129142857Y-124607200D02*
X129190476Y-124559580D01*
X129190476Y-124559580D02*
X129238095Y-124464342D01*
X129238095Y-124464342D02*
X129238095Y-124369104D01*
X129238095Y-124369104D02*
X129190476Y-124273866D01*
X129190476Y-124273866D02*
X129142857Y-124226247D01*
X129142857Y-124226247D02*
X129047619Y-124178628D01*
X129047619Y-124178628D02*
X128857143Y-124131009D01*
X128857143Y-124131009D02*
X128761905Y-124083390D01*
X128761905Y-124083390D02*
X128714286Y-124035771D01*
X128714286Y-124035771D02*
X128666667Y-123940533D01*
X128666667Y-123940533D02*
X128666667Y-123845295D01*
X128666667Y-123845295D02*
X128714286Y-123750057D01*
X128714286Y-123750057D02*
X128761905Y-123702438D01*
X128761905Y-123702438D02*
X128857143Y-123654819D01*
X128857143Y-123654819D02*
X129095238Y-123654819D01*
X129095238Y-123654819D02*
X129238095Y-123702438D01*
X129571429Y-123654819D02*
X129809524Y-124654819D01*
X129809524Y-124654819D02*
X130000000Y-123940533D01*
X130000000Y-123940533D02*
X130190476Y-124654819D01*
X130190476Y-124654819D02*
X130428572Y-123654819D01*
X131333333Y-124654819D02*
X130761905Y-124654819D01*
X131047619Y-124654819D02*
X131047619Y-123654819D01*
X131047619Y-123654819D02*
X130952381Y-123797676D01*
X130952381Y-123797676D02*
X130857143Y-123892914D01*
X130857143Y-123892914D02*
X130761905Y-123940533D01*
X121333333Y-130454819D02*
X121000000Y-129978628D01*
X120761905Y-130454819D02*
X120761905Y-129454819D01*
X120761905Y-129454819D02*
X121142857Y-129454819D01*
X121142857Y-129454819D02*
X121238095Y-129502438D01*
X121238095Y-129502438D02*
X121285714Y-129550057D01*
X121285714Y-129550057D02*
X121333333Y-129645295D01*
X121333333Y-129645295D02*
X121333333Y-129788152D01*
X121333333Y-129788152D02*
X121285714Y-129883390D01*
X121285714Y-129883390D02*
X121238095Y-129931009D01*
X121238095Y-129931009D02*
X121142857Y-129978628D01*
X121142857Y-129978628D02*
X120761905Y-129978628D01*
X122285714Y-130454819D02*
X121714286Y-130454819D01*
X122000000Y-130454819D02*
X122000000Y-129454819D01*
X122000000Y-129454819D02*
X121904762Y-129597676D01*
X121904762Y-129597676D02*
X121809524Y-129692914D01*
X121809524Y-129692914D02*
X121714286Y-129740533D01*
%TO.C,D1*%
D11*
X114545000Y-125935000D02*
X111455000Y-125935000D01*
X113000000Y-131485000D02*
G75*
G02*
X111455170Y-125935000I0J2990000D01*
G01*
X114544830Y-125935000D02*
G75*
G02*
X113000000Y-131485000I-1544830J-2560000D01*
G01*
X115500000Y-128495000D02*
G75*
G02*
X110500000Y-128495000I-2500000J0D01*
G01*
X110500000Y-128495000D02*
G75*
G02*
X115500000Y-128495000I2500000J0D01*
G01*
%TO.C,BT1*%
X137370000Y-124890000D02*
X140988000Y-124890000D01*
X137370000Y-126600000D02*
X137370000Y-124890000D01*
X137370000Y-130400000D02*
X137370000Y-132110000D01*
X140988000Y-132110000D02*
X137370000Y-132110000D01*
X143832700Y-120390000D02*
X147820000Y-120390000D01*
X150020000Y-122590000D02*
X147820000Y-120390000D01*
X150020000Y-122590000D02*
X153340000Y-122590000D01*
X153340000Y-122590000D02*
X155540000Y-120390000D01*
X155540000Y-120390000D02*
X159527300Y-120390000D01*
X159527300Y-136610000D02*
X143832700Y-136610000D01*
X162372000Y-124890000D02*
X165990000Y-124890000D01*
X165990000Y-126600000D02*
X165990000Y-124890000D01*
X165990000Y-130400000D02*
X165990000Y-132110000D01*
X165990000Y-132110000D02*
X162372000Y-132110000D01*
X140988000Y-124890000D02*
G75*
G02*
X143834629Y-120388211I10692020J-3610012D01*
G01*
X143834629Y-136611789D02*
G75*
G02*
X140988000Y-132110000I7845371J8111789D01*
G01*
X159525371Y-120388211D02*
G75*
G02*
X162372000Y-124890000I-7845366J-8111785D01*
G01*
X162372000Y-132110000D02*
G75*
G02*
X159525372Y-136611790I-10692020J3610010D01*
G01*
%TO.C,SW1*%
X126880000Y-129600000D02*
X126880000Y-127400000D01*
X127500000Y-125380000D02*
X132500000Y-125380000D01*
X127500000Y-131620000D02*
X132500000Y-131620000D01*
X133120000Y-127400000D02*
X133120000Y-129600000D01*
X131750000Y-128500000D02*
G75*
G02*
X128250000Y-128500000I-1750000J0D01*
G01*
X128250000Y-128500000D02*
G75*
G02*
X131750000Y-128500000I1750000J0D01*
G01*
%TO.C,R1*%
X123500000Y-125630000D02*
X123500000Y-126580000D01*
X123500000Y-131370000D02*
X123500000Y-130420000D01*
X122580000Y-126580000D02*
X124420000Y-126580000D01*
X124420000Y-130420000D01*
X122580000Y-130420000D01*
X122580000Y-126580000D01*
%TD*%
M02*
